<svg xmlns="http://www.w3.org/2000/svg" version="1.1" viewBox="0.8167200088500977 1.0548913478851318 516.27685546875 513.0277099609375" width="518.00" height="515.00">
<g stroke-width="2.00" fill="none" stroke-linecap="butt">
<path stroke="#a26e5f" d="&#10;  M 516.78 251.95&#10;  Q 461.35 240.85 406.92 255.52&#10;  Q 404.49 256.18 403.01 255.22&#10;  Q 366.97 232.01 278.93 172.91&#10;  Q 271.23 167.74 262.23 168.76&#10;  C 252.38 169.87 242.58 180.92 244.63 191.02&#10;  Q 246.38 199.71 252.20 204.68&#10;  Q 257.85 209.51 294.90 240.19&#10;  Q 296.45 241.48 296.96 242.90&#10;  A 2.38 2.36 -19.0 0 1 295.47 245.92&#10;  Q 283.13 250.06 272.52 255.02&#10;  Q 258.91 261.38 220.62 278.37&#10;  C 208.89 283.58 193.11 288.64 180.49 295.78&#10;  Q 171.03 301.13 170.87 311.16&#10;  C 170.67 324.01 179.60 328.74 191.39 324.85&#10;  C 208.42 319.25 227.79 313.91 246.27 308.04&#10;  Q 262.23 302.97 262.62 302.87&#10;  A 4.08 4.08 0.0 0 1 267.67 306.02&#10;  L 267.72 306.25&#10;  A 4.94 4.93 75.7 0 1 264.37 311.91&#10;  Q 211.25 328.73 158.33 343.79&#10;  C 152.25 345.53 147.76 350.32 147.11 356.83&#10;  C 146.42 363.86 148.32 370.22 154.18 374.07&#10;  C 160.11 377.96 164.96 377.06 172.20 374.86&#10;  Q 217.45 361.09 270.65 346.10&#10;  Q 274.85 344.91 275.21 344.89&#10;  C 278.46 344.69 280.10 347.83 279.73 350.65&#10;  C 279.34 353.67 276.00 354.27 272.61 355.19&#10;  C 254.37 360.17 231.38 367.15 192.75 378.81&#10;  Q 185.75 380.93 183.77 382.64&#10;  C 178.38 387.31 178.64 396.71 181.71 402.46&#10;  C 186.21 410.86 194.67 411.68 202.95 408.93&#10;  Q 208.06 407.23 213.02 405.78&#10;  Q 243.90 396.74 282.65 385.77&#10;  C 287.19 384.48 293.19 382.18 296.14 381.42&#10;  A 3.89 3.89 0.0 0 1 300.96 384.66&#10;  L 300.97 384.73&#10;  A 5.40 5.40 0.0 0 1 297.30 390.59&#10;  Q 263.18 401.71 230.97 409.67&#10;  Q 219.30 412.55 220.03 424.70&#10;  C 220.67 435.33 229.87 440.25 239.63 438.33&#10;  Q 283.04 429.78 326.50 416.99&#10;  C 355.33 408.51 384.36 397.98 407.50 378.08&#10;  Q 418.38 368.71 426.32 358.84&#10;  C 427.79 357.01 429.67 357.31 431.74 357.04&#10;  Q 463.92 352.91 496.34 358.24"/>
<path stroke="#a26e5f" d="&#10;  M 301.61 74.07&#10;  A 12.52 12.52 0.0 0 0 289.09 61.55&#10;  L 288.07 61.55&#10;  A 12.52 12.52 0.0 0 0 275.55 74.07&#10;  L 275.55 116.83&#10;  A 12.52 12.52 0.0 0 0 288.07 129.35&#10;  L 289.09 129.35&#10;  A 12.52 12.52 0.0 0 0 301.61 116.83&#10;  L 301.61 74.07"/>
<path stroke="#a26e5f" d="&#10;  M 383.8024 104.6347&#10;  A 12.14 12.14 0.0 0 0 380.6148 87.7647&#10;  L 380.0861 87.4040&#10;  A 12.14 12.14 0.0 0 0 363.2161 90.5917&#10;  L 335.1976 131.6653&#10;  A 12.14 12.14 0.0 0 0 338.3852 148.5353&#10;  L 338.9139 148.8960&#10;  A 12.14 12.14 0.0 0 0 355.7839 145.7083&#10;  L 383.8024 104.6347"/>
<path stroke="#a26e5f" d="&#10;  M 439.5315 156.5335&#10;  A 12.02 12.02 0.0 0 0 423.3464 151.3371&#10;  L 380.5833 173.3143&#10;  A 12.02 12.02 0.0 0 0 375.3868 189.4994&#10;  L 375.6885 190.0865&#10;  A 12.02 12.02 0.0 0 0 391.8736 195.2829&#10;  L 434.6367 173.3057&#10;  A 12.02 12.02 0.0 0 0 439.8332 157.1206&#10;  L 439.5315 156.5335"/>
</g>
<path fill="#452890" d="&#10;  M 516.78 251.95&#10;  Q 461.35 240.85 406.92 255.52&#10;  Q 404.49 256.18 403.01 255.22&#10;  Q 366.97 232.01 278.93 172.91&#10;  Q 271.23 167.74 262.23 168.76&#10;  C 252.38 169.87 242.58 180.92 244.63 191.02&#10;  Q 246.38 199.71 252.20 204.68&#10;  Q 257.85 209.51 294.90 240.19&#10;  Q 296.45 241.48 296.96 242.90&#10;  A 2.38 2.36 -19.0 0 1 295.47 245.92&#10;  Q 283.13 250.06 272.52 255.02&#10;  Q 258.91 261.38 220.62 278.37&#10;  C 208.89 283.58 193.11 288.64 180.49 295.78&#10;  Q 171.03 301.13 170.87 311.16&#10;  C 170.67 324.01 179.60 328.74 191.39 324.85&#10;  C 208.42 319.25 227.79 313.91 246.27 308.04&#10;  Q 262.23 302.97 262.62 302.87&#10;  A 4.08 4.08 0.0 0 1 267.67 306.02&#10;  L 267.72 306.25&#10;  A 4.94 4.93 75.7 0 1 264.37 311.91&#10;  Q 211.25 328.73 158.33 343.79&#10;  C 152.25 345.53 147.76 350.32 147.11 356.83&#10;  C 146.42 363.86 148.32 370.22 154.18 374.07&#10;  C 160.11 377.96 164.96 377.06 172.20 374.86&#10;  Q 217.45 361.09 270.65 346.10&#10;  Q 274.85 344.91 275.21 344.89&#10;  C 278.46 344.69 280.10 347.83 279.73 350.65&#10;  C 279.34 353.67 276.00 354.27 272.61 355.19&#10;  C 254.37 360.17 231.38 367.15 192.75 378.81&#10;  Q 185.75 380.93 183.77 382.64&#10;  C 178.38 387.31 178.64 396.71 181.71 402.46&#10;  C 186.21 410.86 194.67 411.68 202.95 408.93&#10;  Q 208.06 407.23 213.02 405.78&#10;  Q 243.90 396.74 282.65 385.77&#10;  C 287.19 384.48 293.19 382.18 296.14 381.42&#10;  A 3.89 3.89 0.0 0 1 300.96 384.66&#10;  L 300.97 384.73&#10;  A 5.40 5.40 0.0 0 1 297.30 390.59&#10;  Q 263.18 401.71 230.97 409.67&#10;  Q 219.30 412.55 220.03 424.70&#10;  C 220.67 435.33 229.87 440.25 239.63 438.33&#10;  Q 283.04 429.78 326.50 416.99&#10;  C 355.33 408.51 384.36 397.98 407.50 378.08&#10;  Q 418.38 368.71 426.32 358.84&#10;  C 427.79 357.01 429.67 357.31 431.74 357.04&#10;  Q 463.92 352.91 496.34 358.24&#10;  Q 478.04 401.10 445.87 434.61&#10;  Q 413.99 467.82 372.12 488.35&#10;  Q 334.26 506.91 294.98 512.01&#10;  Q 287.49 512.98 286.23 513.02&#10;  C 281.91 513.14 278.89 513.97 274.57 514.01&#10;  Q 259.98 514.16 242.56 514.00&#10;  C 239.07 513.97 235.32 513.28 231.75 512.93&#10;  Q 213.10 511.12 194.55 506.19&#10;  Q 155.15 495.74 120.59 474.13&#10;  Q 72.02 443.74 40.14 395.87&#10;  A 0.47 0.47 0.0 0 1 40.48 395.14&#10;  C 42.80 394.89 45.30 394.90 47.51 394.55&#10;  Q 55.59 393.29 60.49 392.89&#10;  Q 63.97 392.60 74.41 390.53&#10;  Q 102.78 384.90 130.37 376.39&#10;  Q 132.16 375.84 132.35 375.00&#10;  Q 132.51 374.25 131.93 372.59&#10;  Q 130.39 368.21 130.29 367.49&#10;  Q 127.91 350.34 138.50 336.72&#10;  C 143.35 330.50 150.05 327.13 157.52 324.78&#10;  A 0.52 0.52 0.0 0 0 157.81 324.03&#10;  C 148.85 308.02 156.35 288.92 172.48 281.19&#10;  Q 195.37 270.23 222.13 258.90&#10;  C 232.48 254.53 241.43 245.74 241.16 233.73&#10;  Q 240.87 220.73 229.30 216.09&#10;  Q 226.84 215.10 225.35 214.94&#10;  C 223.40 214.74 221.65 214.08 219.86 214.07&#10;  Q 215.38 214.04 210.57 213.89&#10;  A 2.32 1.97 49.5 0 1 210.07 213.81&#10;  L 206.79 212.84&#10;  A 2.10 2.09 25.4 0 1 205.65 209.65&#10;  C 208.76 205.10 214.13 198.38 218.62 192.01&#10;  Q 234.03 170.17 246.30 152.03&#10;  Q 250.06 146.47 250.07 139.03&#10;  C 250.07 133.52 249.98 128.82 246.10 125.20&#10;  C 242.17 121.54 235.02 120.36 229.88 121.91&#10;  Q 227.92 122.50 223.42 127.03&#10;  Q 183.09 167.67 142.66 206.41&#10;  C 135.80 212.99 124.54 225.70 115.17 235.09&#10;  C 104.01 246.28 91.19 260.50 83.66 267.91&#10;  C 78.90 272.60 71.51 279.19 65.19 283.33&#10;  C 47.58 294.85 27.25 302.59 6.95 306.75&#10;  A 2.31 2.30 -15.8 0 1 4.32 305.28&#10;  C 3.93 304.22 4.13 302.66 3.91 301.23&#10;  Q 2.98 295.28 2.77 294.33&#10;  C 1.77 289.74 2.14 285.95 1.35 281.38&#10;  Q 1.13 280.08 1.05 276.18&#10;  Q 0.51 248.20 1.22 239.74&#10;  Q 6.29 179.22 36.12 127.35&#10;  Q 61.91 82.51 103.86 51.64&#10;  Q 155.01 14.00 220.65 3.61&#10;  Q 223.13 3.22 227.38 3.00&#10;  Q 231.01 2.80 233.19 2.24&#10;  A 6.98 6.81 38.1 0 1 235.21 2.02&#10;  C 239.68 2.20 244.70 1.21 250.01 1.11&#10;  Q 271.57 0.72 291.50 3.09&#10;  C 348.08 9.84 401.28 35.18 441.88 75.11&#10;  C 445.85 79.02 449.44 83.40 453.20 87.21&#10;  Q 454.63 88.65 457.51 92.14&#10;  Q 501.44 145.24 513.58 212.82&#10;  C 515.01 220.78 515.83 229.10 516.51 237.50&#10;  Q 517.10 244.81 516.78 251.95&#10;  Z&#10;  M 301.61 74.07&#10;  A 12.52 12.52 0.0 0 0 289.09 61.55&#10;  L 288.07 61.55&#10;  A 12.52 12.52 0.0 0 0 275.55 74.07&#10;  L 275.55 116.83&#10;  A 12.52 12.52 0.0 0 0 288.07 129.35&#10;  L 289.09 129.35&#10;  A 12.52 12.52 0.0 0 0 301.61 116.83&#10;  L 301.61 74.07&#10;  Z&#10;  M 383.8024 104.6347&#10;  A 12.14 12.14 0.0 0 0 380.6148 87.7647&#10;  L 380.0861 87.4040&#10;  A 12.14 12.14 0.0 0 0 363.2161 90.5917&#10;  L 335.1976 131.6653&#10;  A 12.14 12.14 0.0 0 0 338.3852 148.5353&#10;  L 338.9139 148.8960&#10;  A 12.14 12.14 0.0 0 0 355.7839 145.7083&#10;  L 383.8024 104.6347&#10;  Z&#10;  M 439.5315 156.5335&#10;  A 12.02 12.02 0.0 0 0 423.3464 151.3371&#10;  L 380.5833 173.3143&#10;  A 12.02 12.02 0.0 0 0 375.3868 189.4994&#10;  L 375.6885 190.0865&#10;  A 12.02 12.02 0.0 0 0 391.8736 195.2829&#10;  L 434.6367 173.3057&#10;  A 12.02 12.02 0.0 0 0 439.8332 157.1206&#10;  L 439.5315 156.5335&#10;  Z"/>
<rect fill="#ffb32d" x="275.55" y="61.55" width="26.06" height="67.80" rx="12.52"/>
<rect fill="#ffb32d" x="-12.46" y="-37.00" transform="translate(359.50,118.15) rotate(34.3)" width="24.92" height="74.00" rx="12.14"/>
<rect fill="#ffb32d" x="-36.06" y="-12.35" transform="translate(407.61,173.31) rotate(-27.2)" width="72.12" height="24.70" rx="12.02"/>
<path fill="#ffb32d" d="&#10;  M 516.78 251.95&#10;  Q 517.32 262.63 516.93 273.17&#10;  C 516.79 277.02 516.06 280.00 515.94 283.44&#10;  Q 515.88 285.01 515.57 287.55&#10;  Q 511.08 324.32 496.34 358.24&#10;  Q 463.92 352.91 431.74 357.04&#10;  C 429.67 357.31 427.79 357.01 426.32 358.84&#10;  Q 418.38 368.71 407.50 378.08&#10;  C 384.36 397.98 355.33 408.51 326.50 416.99&#10;  Q 283.04 429.78 239.63 438.33&#10;  C 229.87 440.25 220.67 435.33 220.03 424.70&#10;  Q 219.30 412.55 230.97 409.67&#10;  Q 263.18 401.71 297.30 390.59&#10;  A 5.40 5.40 0.0 0 0 300.97 384.73&#10;  L 300.96 384.66&#10;  A 3.89 3.89 0.0 0 0 296.14 381.42&#10;  C 293.19 382.18 287.19 384.48 282.65 385.77&#10;  Q 243.90 396.74 213.02 405.78&#10;  Q 208.06 407.23 202.95 408.93&#10;  C 194.67 411.68 186.21 410.86 181.71 402.46&#10;  C 178.64 396.71 178.38 387.31 183.77 382.64&#10;  Q 185.75 380.93 192.75 378.81&#10;  C 231.38 367.15 254.37 360.17 272.61 355.19&#10;  C 276.00 354.27 279.34 353.67 279.73 350.65&#10;  C 280.10 347.83 278.46 344.69 275.21 344.89&#10;  Q 274.85 344.91 270.65 346.10&#10;  Q 217.45 361.09 172.20 374.86&#10;  C 164.96 377.06 160.11 377.96 154.18 374.07&#10;  C 148.32 370.22 146.42 363.86 147.11 356.83&#10;  C 147.76 350.32 152.25 345.53 158.33 343.79&#10;  Q 211.25 328.73 264.37 311.91&#10;  A 4.94 4.93 75.7 0 0 267.72 306.25&#10;  L 267.67 306.02&#10;  A 4.08 4.08 0.0 0 0 262.62 302.87&#10;  Q 262.23 302.97 246.27 308.04&#10;  C 227.79 313.91 208.42 319.25 191.39 324.85&#10;  C 179.60 328.74 170.67 324.01 170.87 311.16&#10;  Q 171.03 301.13 180.49 295.78&#10;  C 193.11 288.64 208.89 283.58 220.62 278.37&#10;  Q 258.91 261.38 272.52 255.02&#10;  Q 283.13 250.06 295.47 245.92&#10;  A 2.38 2.36 -19.0 0 0 296.96 242.90&#10;  Q 296.45 241.48 294.90 240.19&#10;  Q 257.85 209.51 252.20 204.68&#10;  Q 246.38 199.71 244.63 191.02&#10;  C 242.58 180.92 252.38 169.87 262.23 168.76&#10;  Q 271.23 167.74 278.93 172.91&#10;  Q 366.97 232.01 403.01 255.22&#10;  Q 404.49 256.18 406.92 255.52&#10;  Q 461.35 240.85 516.78 251.95&#10;  Z"/>
</svg>